<svg id="fec0853f-79c9-4938-99e2-5a9667bfe2f4" data-name="Layer 1" xmlns="http://www.w3.org/2000/svg" viewBox="0 0 180 211" style=""><title>beard-support</title><g id="b6b00540-80c2-4ee4-a407-6a2d712adb5c" data-name="support"><path d="M7.5,96.5h34a0,0,0,0,1,0,0v57a0,0,0,0,1,0,0H25A17.5,17.5,0,0,1,7.5,136V96.5A0,0,0,0,1,7.5,96.5Z" style="fill:none;stroke:#29abe2;stroke-miterlimit:10;stroke-width:15px" class="kgwXRkeG_0"></path><path d="M216,141h16.5a0,0,0,0,1,0,0v57a0,0,0,0,1,0,0h-34a0,0,0,0,1,0,0V158.5A17.5,17.5,0,0,1,216,141Z" transform="translate(371 294.5) rotate(-180)" style="fill:none;stroke:#29abe2;stroke-miterlimit:10;stroke-width:15px" class="kgwXRkeG_1"></path><path d="M232.5,141v-6.5A82.5,82.5,0,0,0,150,52h0a82.5,82.5,0,0,0-82.5,82.5V141" transform="translate(-60 -44.5)" style="fill:none;stroke:#29abe2;stroke-miterlimit:10;stroke-width:15px" class="kgwXRkeG_2"></path><path d="M84.5,198v9a31,31,0,0,0,31,31H166" transform="translate(-60 -44.5)" style="fill:none;stroke:#29abe2;stroke-miterlimit:10;stroke-width:15px" class="kgwXRkeG_3"></path><path style="fill:none;stroke:#29abe2;stroke-miterlimit:10;stroke-width:15px" d="M73.5,193.5A16,10 0,1,1 105.5,193.5A16,10 0,1,1 73.5,193.5" class="kgwXRkeG_4"></path></g><style data-made-with="vivus-instant">.kgwXRkeG_0{stroke-dasharray:175 177;stroke-dashoffset:176;animation:kgwXRkeG_draw 1500ms ease 0ms forwards;}.kgwXRkeG_1{stroke-dasharray:175 177;stroke-dashoffset:176;animation:kgwXRkeG_draw 1500ms ease 0ms forwards;}.kgwXRkeG_2{stroke-dasharray:273 275;stroke-dashoffset:274;animation:kgwXRkeG_draw 1500ms ease 0ms forwards;}.kgwXRkeG_3{stroke-dasharray:109 111;stroke-dashoffset:110;animation:kgwXRkeG_draw 1500ms ease 0ms forwards;}.kgwXRkeG_4{stroke-dasharray:83 85;stroke-dashoffset:84;animation:kgwXRkeG_draw 1500ms ease 0ms forwards;}@keyframes kgwXRkeG_draw{100%{stroke-dashoffset:0;}}@keyframes kgwXRkeG_fade{0%{stroke-opacity:1;}92.98245614035088%{stroke-opacity:1;}100%{stroke-opacity:0;}}</style></svg>