<svg id="fec0853f-79c9-4938-99e2-5a9667bfe2f4" data-name="Layer 1" xmlns="http://www.w3.org/2000/svg" viewBox="0 0 180 211"><title>beard-support</title><g id="b6b00540-80c2-4ee4-a407-6a2d712adb5c" data-name="support"><path d="M7.5,96.5h34a0,0,0,0,1,0,0v57a0,0,0,0,1,0,0H25A17.5,17.5,0,0,1,7.5,136V96.5A0,0,0,0,1,7.5,96.5Z" style="fill:none;stroke:#29abe2;stroke-miterlimit:10;stroke-width:15px"/><path d="M216,141h16.5a0,0,0,0,1,0,0v57a0,0,0,0,1,0,0h-34a0,0,0,0,1,0,0V158.5A17.5,17.5,0,0,1,216,141Z" transform="translate(371 294.5) rotate(-180)" style="fill:none;stroke:#29abe2;stroke-miterlimit:10;stroke-width:15px"/><path d="M232.5,141v-6.5A82.5,82.5,0,0,0,150,52h0a82.5,82.5,0,0,0-82.5,82.5V141" transform="translate(-60 -44.5)" style="fill:none;stroke:#29abe2;stroke-miterlimit:10;stroke-width:15px"/><path d="M84.5,198v9a31,31,0,0,0,31,31H166" transform="translate(-60 -44.5)" style="fill:none;stroke:#29abe2;stroke-miterlimit:10;stroke-width:15px"/><ellipse cx="89.5" cy="193.5" rx="16" ry="10" style="fill:none;stroke:#29abe2;stroke-miterlimit:10;stroke-width:15px"/></g></svg>