<svg id="24476d78-fc8f-44eb-b909-d48e729e114f" data-name="Layer 1" xmlns="http://www.w3.org/2000/svg" viewBox="0 0 210.72 210.72"><title>logo-design-branding</title><g id="58e9c867-3f3d-4d07-a4d3-71a3f854705f" data-name="branding"><polyline points="105.36 68.59 47.38 10.61 10.61 47.38 68.59 105.36" style="fill:none;stroke:#29abe2;stroke-miterlimit:10;stroke-width:15px"/><polyline points="105.36 142.13 163.34 200.11 200.11 163.34 142.13 105.36" style="fill:none;stroke:#29abe2;stroke-miterlimit:10;stroke-width:15px"/><line x1="74.25" y1="37.48" x2="57.28" y2="54.45" style="fill:none;stroke:#29abe2;stroke-miterlimit:10;stroke-width:15px"/><line x1="173.24" y1="136.47" x2="156.27" y2="153.44" style="fill:none;stroke:#29abe2;stroke-miterlimit:10;stroke-width:15px"/><path d="M232,68h0a26,26,0,0,0-36.77,0L65.15,198.08l-4.6,42.08,41.37-5.31L232,104.75A26,26,0,0,0,232,68Z" transform="translate(-44.64 -44.64)" style="fill:none;stroke:#29abe2;stroke-miterlimit:10;stroke-width:15px"/><polyline points="57.28 190.21 50.91 161.22 20.51 153.44" style="fill:none;stroke:#29abe2;stroke-miterlimit:10;stroke-width:15px"/><line x1="176.66" y1="70.83" x2="139.89" y2="34.06" style="fill:none;stroke:#29abe2;stroke-miterlimit:10;stroke-width:15px"/></g></svg>