<!--?xml version="1.0" encoding="utf-8"?-->
<!-- Generator: Adobe Illustrator 22.1.0, SVG Export Plug-In . SVG Version: 6.00 Build 0)  -->
<svg version="1.1" id="fd80a30f-dd9e-45d1-a5a3-5891723548ba" xmlns="http://www.w3.org/2000/svg" xmlns:xlink="http://www.w3.org/1999/xlink" x="0px" y="0px" viewBox="0 0 241 241" style="" xml:space="preserve">
<style type="text/css">
	.st0{fill:none;stroke:url(#SVGID_1_);stroke-width:15;stroke-miterlimit:10;}
	.st1{fill:none;stroke:url(#SVGID_2_);stroke-width:21;stroke-miterlimit:10;}
	.st2{fill:none;stroke:url(#SVGID_3_);stroke-width:19;stroke-miterlimit:10;}
	.st3{fill:none;stroke:url(#SVGID_4_);stroke-width:26;stroke-miterlimit:10;}
	.st4{fill:none;stroke:url(#SVGID_5_);stroke-width:26;stroke-miterlimit:10;}
	.st5{fill:none;stroke:url(#SVGID_6_);stroke-width:30;stroke-miterlimit:10;}
</style>
<title>palette</title>
<g id="_x39_09220ee-cf65-4141-a9b2-74341caa7197">
	
		<linearGradient id="SVGID_1_" gradientUnits="userSpaceOnUse" x1="71.7799" y1="184.0195" x2="242.0069" y2="13.7925" gradientTransform="matrix(1 0 0 -1 -29.5 212.5)">
		<stop offset="0" style="stop-color:#662D91"></stop>
		<stop offset="0.49" style="stop-color:#C7B299"></stop>
		<stop offset="1" style="stop-color:#29ABE2"></stop>
	</linearGradient>
	<path class="st0 FhkpnAoz_0" d="M119.5,7.5c-61,0.6-110.9,50-112,111c-0.1,5.2,0.2,10.5,0.8,15.7c2.1,17.6,24.1,24.8,36.3,11.9
		c6-6.3,13-11,20.4-11c22.6,0,41,18.4,41,41c0,7.4-4.7,14.4-11,20.4c-12.9,12.2-5.7,34.1,11.9,36.3c5.2,0.6,10.4,0.9,15.7,0.8
		c60.9-1.1,110.4-51,111-111.9C234.1,59.2,184,8.1,121.6,7.5C120.9,7.5,120.2,7.5,119.5,7.5z"></path>
	
		<linearGradient id="SVGID_2_" gradientUnits="userSpaceOnUse" x1="45.4684" y1="164.6866" x2="76.0316" y2="134.1134" gradientTransform="matrix(1 0 0 -1 0 242)">
		<stop offset="0" style="stop-color:#662D91"></stop>
		<stop offset="1" style="stop-color:#29ABE2"></stop>
	</linearGradient>
	<path class="st1 FhkpnAoz_1" d="M48.5,92.6A12.3,9.8 0,1,1 73.1,92.6A12.3,9.8 0,1,1 48.5,92.6"></path>
	
		<linearGradient id="SVGID_3_" gradientUnits="userSpaceOnUse" x1="92.2985" y1="203.7015" x2="120.7015" y2="175.2985" gradientTransform="matrix(1 0 0 -1 0 242)">
		<stop offset="0" style="stop-color:#662D91"></stop>
		<stop offset="1" style="stop-color:#29ABE2"></stop>
	</linearGradient>
	<path class="st2 FhkpnAoz_2" d="M95,52.5A11.5,9.6 0,1,1 118,52.5A11.5,9.6 0,1,1 95,52.5"></path>
	
		<linearGradient id="SVGID_4_" gradientUnits="userSpaceOnUse" x1="143.5144" y1="190.151" x2="180.5649" y2="153.1006" gradientTransform="matrix(1 0 0 -1 0 242)">
		<stop offset="0" style="stop-color:#662D91"></stop>
		<stop offset="1" style="stop-color:#29ABE2"></stop>
	</linearGradient>
	<path class="st3 FhkpnAoz_3" d="M149.2,70.4A12.8,13.6 0,1,1 174.8,70.4A12.8,13.6 0,1,1 149.2,70.4"></path>
	
		<linearGradient id="SVGID_5_" gradientUnits="userSpaceOnUse" x1="162.6521" y1="129.3479" x2="201.3479" y2="90.6521" gradientTransform="matrix(1 0 0 -1 0 242)">
		<stop offset="0" style="stop-color:#662D91"></stop>
		<stop offset="1" style="stop-color:#29ABE2"></stop>
	</linearGradient>
	<path class="st4 FhkpnAoz_4" d="M166,132A16,12.5 0,1,1 198,132A16,12.5 0,1,1 166,132"></path>
	
		<linearGradient id="SVGID_6_" gradientUnits="userSpaceOnUse" x1="129.297" y1="78.2031" x2="171.703" y2="35.7969" gradientTransform="matrix(1 0 0 -1 0 242)">
		<stop offset="0" style="stop-color:#662D91"></stop>
		<stop offset="1" style="stop-color:#29ABE2"></stop>
	</linearGradient>
	<path class="st5 FhkpnAoz_5" d="M134.6,185A15.9,14 0,1,1 166.4,185A15.9,14 0,1,1 134.6,185"></path>
</g>
<style data-made-with="vivus-instant">.FhkpnAoz_0{stroke-dasharray:768 770;stroke-dashoffset:769;animation:FhkpnAoz_draw_0 6200ms ease 0ms infinite,FhkpnAoz_fade 6200ms linear 0ms infinite;}.FhkpnAoz_1{stroke-dasharray:70 72;stroke-dashoffset:71;animation:FhkpnAoz_draw_1 6200ms ease 0ms infinite,FhkpnAoz_fade 6200ms linear 0ms infinite;}.FhkpnAoz_2{stroke-dasharray:67 69;stroke-dashoffset:68;animation:FhkpnAoz_draw_2 6200ms ease 0ms infinite,FhkpnAoz_fade 6200ms linear 0ms infinite;}.FhkpnAoz_3{stroke-dasharray:83 85;stroke-dashoffset:84;animation:FhkpnAoz_draw_3 6200ms ease 0ms infinite,FhkpnAoz_fade 6200ms linear 0ms infinite;}.FhkpnAoz_4{stroke-dasharray:90 92;stroke-dashoffset:91;animation:FhkpnAoz_draw_4 6200ms ease 0ms infinite,FhkpnAoz_fade 6200ms linear 0ms infinite;}.FhkpnAoz_5{stroke-dasharray:95 97;stroke-dashoffset:96;animation:FhkpnAoz_draw_5 6200ms ease 0ms infinite,FhkpnAoz_fade 6200ms linear 0ms infinite;}@keyframes FhkpnAoz_draw{100%{stroke-dashoffset:0;}}@keyframes FhkpnAoz_fade{0%{stroke-opacity:1;}93.54838709677419%{stroke-opacity:1;}100%{stroke-opacity:0;}}@keyframes FhkpnAoz_draw_0{12.903225806451612%{stroke-dashoffset: 769}33.9434731456401%{ stroke-dashoffset: 0;}100%{ stroke-dashoffset: 0;}}@keyframes FhkpnAoz_draw_1{33.9434731456401%{stroke-dashoffset: 71}35.886070754329815%{ stroke-dashoffset: 0;}100%{ stroke-dashoffset: 0;}}@keyframes FhkpnAoz_draw_2{35.8860707543298%{stroke-dashoffset: 68}37.746586773919944%{ stroke-dashoffset: 0;}100%{ stroke-dashoffset: 0;}}@keyframes FhkpnAoz_draw_3{37.746586773919944%{stroke-dashoffset: 84}40.044871268707766%{ stroke-dashoffset: 0;}100%{ stroke-dashoffset: 0;}}@keyframes FhkpnAoz_draw_4{40.04487126870776%{stroke-dashoffset: 91}42.53467947139456%{ stroke-dashoffset: 0;}100%{ stroke-dashoffset: 0;}}@keyframes FhkpnAoz_draw_5{42.53467947139457%{stroke-dashoffset: 96}45.16129032258064%{ stroke-dashoffset: 0;}100%{ stroke-dashoffset: 0;}}</style></svg>
