<svg id="24476d78-fc8f-44eb-b909-d48e729e114f" data-name="Layer 1" xmlns="http://www.w3.org/2000/svg" viewBox="0 0 210.72 210.72" style=""><title>logo-design-branding</title><g id="58e9c867-3f3d-4d07-a4d3-71a3f854705f" data-name="branding"><path style="fill:none;stroke:#29abe2;stroke-miterlimit:10;stroke-width:15px" d="M105.36,68.59L47.38,10.61L10.61,47.38L68.59,105.36" class="fOkXEgfc_0"></path><path style="fill:none;stroke:#29abe2;stroke-miterlimit:10;stroke-width:15px" d="M105.36,142.13L163.34,200.11L200.11,163.34L142.13,105.36" class="fOkXEgfc_1"></path><path style="fill:none;stroke:#29abe2;stroke-miterlimit:10;stroke-width:15px" d="M74.25,37.48L57.28,54.45" class="fOkXEgfc_2"></path><path style="fill:none;stroke:#29abe2;stroke-miterlimit:10;stroke-width:15px" d="M173.24,136.47L156.27,153.44" class="fOkXEgfc_3"></path><path d="M232,68h0a26,26,0,0,0-36.77,0L65.15,198.08l-4.6,42.08,41.37-5.31L232,104.75A26,26,0,0,0,232,68Z" transform="translate(-44.64 -44.64)" style="fill:none;stroke:#29abe2;stroke-miterlimit:10;stroke-width:15px" class="fOkXEgfc_4"></path><path style="fill:none;stroke:#29abe2;stroke-miterlimit:10;stroke-width:15px" d="M57.28,190.21L50.91,161.22L20.51,153.44" class="fOkXEgfc_5"></path><path style="fill:none;stroke:#29abe2;stroke-miterlimit:10;stroke-width:15px" d="M176.66,70.83L139.89,34.06" class="fOkXEgfc_6"></path></g><style data-made-with="vivus-instant">.fOkXEgfc_0{stroke-dasharray:216 218;stroke-dashoffset:217;animation:fOkXEgfc_draw 1500ms ease 0ms forwards;}.fOkXEgfc_1{stroke-dasharray:216 218;stroke-dashoffset:217;animation:fOkXEgfc_draw 1500ms ease 0ms forwards;}.fOkXEgfc_2{stroke-dasharray:24 26;stroke-dashoffset:25;animation:fOkXEgfc_draw 1500ms ease 0ms forwards;}.fOkXEgfc_3{stroke-dasharray:24 26;stroke-dashoffset:25;animation:fOkXEgfc_draw 1500ms ease 0ms forwards;}.fOkXEgfc_4{stroke-dasharray:534 536;stroke-dashoffset:535;animation:fOkXEgfc_draw 1500ms ease 0ms forwards;}.fOkXEgfc_5{stroke-dasharray:62 64;stroke-dashoffset:63;animation:fOkXEgfc_draw 1500ms ease 0ms forwards;}.fOkXEgfc_6{stroke-dasharray:53 55;stroke-dashoffset:54;animation:fOkXEgfc_draw 1500ms ease 0ms forwards;}@keyframes fOkXEgfc_draw{100%{stroke-dashoffset:0;}}@keyframes fOkXEgfc_fade{0%{stroke-opacity:1;}92.98245614035088%{stroke-opacity:1;}100%{stroke-opacity:0;}}</style></svg>