<svg id="088bc29c-69ff-46b5-8e87-232d4932cb5f" data-name="Layer 1" xmlns="http://www.w3.org/2000/svg" viewBox="0 0 195.5 181" style=""><title>web-design-development</title><g id="9e1b6725-dcc1-43f4-86ef-6595a57b9586" data-name="web design"><path width="180" height="52" style="fill:none;stroke:#29abe2;stroke-miterlimit:10;stroke-width:15px" d="M7.5 7.5 L187.5 7.5 L187.5 59.5 L7.5 59.5 Z" class="hlYGNFDs_0"></path><path style="fill:none;stroke:#29abe2;stroke-miterlimit:10;stroke-width:15px" d="M8,74.5L8,173.5L188,173.5L188,74.5" class="hlYGNFDs_1"></path><path width="49" height="49" style="fill:none;stroke:#29abe2;stroke-miterlimit:10;stroke-width:15px" d="M40 90.5 L89 90.5 L89 139.5 L40 139.5 Z" class="hlYGNFDs_2"></path><path style="fill:none;stroke:#29abe2;stroke-miterlimit:10;stroke-width:15px" d="M163,90.5L114,90.5" class="hlYGNFDs_3"></path><path style="fill:none;stroke:#29abe2;stroke-miterlimit:10;stroke-width:15px" d="M163.5,139.5L114.5,139.5" class="hlYGNFDs_4"></path><path style="fill:none;stroke:#29abe2;stroke-miterlimit:10;stroke-width:15px" d="M163.5,114.5L114.5,114.5" class="hlYGNFDs_5"></path><path style="fill:none;stroke:#29abe2;stroke-miterlimit:10;stroke-width:15px" d="M29.5,33.5A2.5,2.5 0,1,1 34.5,33.5A2.5,2.5 0,1,1 29.5,33.5" class="hlYGNFDs_6"></path><path style="fill:none;stroke:#29abe2;stroke-miterlimit:10;stroke-width:15px" d="M53.5,33.5A2.5,2.5 0,1,1 58.5,33.5A2.5,2.5 0,1,1 53.5,33.5" class="hlYGNFDs_7"></path><path style="fill:none;stroke:#29abe2;stroke-miterlimit:10;stroke-width:15px" d="M77.5,33.5A2.5,2.5 0,1,1 82.5,33.5A2.5,2.5 0,1,1 77.5,33.5" class="hlYGNFDs_8"></path></g><style data-made-with="vivus-instant">.hlYGNFDs_0{stroke-dasharray:464 466;stroke-dashoffset:465;animation:hlYGNFDs_draw 1500ms ease 0ms forwards;}.hlYGNFDs_1{stroke-dasharray:378 380;stroke-dashoffset:379;animation:hlYGNFDs_draw 1500ms ease 0ms forwards;}.hlYGNFDs_2{stroke-dasharray:196 198;stroke-dashoffset:197;animation:hlYGNFDs_draw 1500ms ease 0ms forwards;}.hlYGNFDs_3{stroke-dasharray:49 51;stroke-dashoffset:50;animation:hlYGNFDs_draw 1500ms ease 0ms forwards;}.hlYGNFDs_4{stroke-dasharray:49 51;stroke-dashoffset:50;animation:hlYGNFDs_draw 1500ms ease 0ms forwards;}.hlYGNFDs_5{stroke-dasharray:49 51;stroke-dashoffset:50;animation:hlYGNFDs_draw 1500ms ease 0ms forwards;}.hlYGNFDs_6{stroke-dasharray:16 18;stroke-dashoffset:17;animation:hlYGNFDs_draw 1500ms ease 0ms forwards;}.hlYGNFDs_7{stroke-dasharray:16 18;stroke-dashoffset:17;animation:hlYGNFDs_draw 1500ms ease 0ms forwards;}.hlYGNFDs_8{stroke-dasharray:16 18;stroke-dashoffset:17;animation:hlYGNFDs_draw 1500ms ease 0ms forwards;}@keyframes hlYGNFDs_draw{100%{stroke-dashoffset:0;}}@keyframes hlYGNFDs_fade{0%{stroke-opacity:1;}92.98245614035088%{stroke-opacity:1;}100%{stroke-opacity:0;}}</style></svg>