<?xml version="1.0" standalone="no"?>
<!DOCTYPE svg PUBLIC "-//W3C//DTD SVG 20010904//EN"
 "http://www.w3.org/TR/2001/REC-SVG-20010904/DTD/svg10.dtd">
<svg version="1.0" xmlns="http://www.w3.org/2000/svg"
 width="500.000000pt" height="500.000000pt" viewBox="0 0 500.000000 500.000000"
 preserveAspectRatio="xMidYMid meet">
<metadata>
Created by potrace 1.11, written by Peter Selinger 2001-2013
</metadata>
<g transform="translate(0.000000,500.000000) scale(0.100000,-0.100000)"
fill="#000000" stroke="none">
<path d="M9 4961 c-1 -44 0 -1028 0 -1056 1 -19 7 -20 228 -18 126 1 234 2
240 2 10 1 12 66 12 279 -1 152 0 293 0 313 l1 36 2015 0 2015 0 -2 -2016 -3
-2016 -2012 -1 -2013 -1 -1 46 c0 25 -1 126 -1 224 l1 177 -27 1 c-15 0 -123
1 -239 2 l-213 2 -1 -27 c0 -36 0 -874 0 -891 1 -11 421 -14 2496 -14 l2495 0
0 2497 0 2497 -2495 0 -2495 0 -1 -36z"/>
<path d="M17 3602 c-16 -3 -17 -88 -17 -1193 l0 -1189 240 0 c222 0 240 1 241
18 0 9 1 232 1 495 1 429 3 477 17 478 96 5 242 -5 300 -21 125 -33 184 -103
555 -657 l210 -313 288 0 c229 0 288 3 282 13 -4 6 -19 30 -33 52 -14 22 -31
49 -37 60 -27 47 -261 418 -317 500 -136 203 -213 285 -365 388 -48 33 -51 37
-30 41 138 29 217 56 296 102 61 36 64 39 132 107 104 105 158 245 165 422 13
362 -203 631 -539 671 -22 3 -50 7 -61 9 -55 12 -318 18 -791 19 -286 0 -528
0 -537 -2z m1257 -432 c107 -41 166 -126 174 -250 5 -96 -22 -175 -82 -234
-76 -77 -161 -89 -616 -90 l-265 -1 -1 301 -1 302 366 -3 c352 -2 368 -3 425
-25z"/>
<path d="M2199 3590 c-1 -20 -1 -2318 0 -2348 l1 -23 538 2 c392 0 563 4 633
14 208 30 407 125 519 249 19 22 40 44 46 50 23 24 93 134 123 194 41 80 98
252 107 317 3 28 8 53 10 57 7 11 18 215 18 318 -1 211 -25 374 -80 538 -82
244 -247 443 -448 541 -195 95 -258 102 -984 104 -422 2 -482 0 -483 -13z
m1006 -403 c17 -3 50 -9 75 -12 124 -19 256 -115 316 -230 77 -145 97 -262 97
-555 -1 -211 -11 -300 -50 -425 -53 -170 -136 -262 -278 -308 -82 -26 -108
-28 -402 -32 l-283 -4 0 789 0 788 248 -3 c136 -2 261 -6 277 -8z"/>
</g>
</svg>
