<svg id="eeefc404-1767-4b87-9183-12a6811ac5de" data-name="Layer 1" xmlns="http://www.w3.org/2000/svg" viewBox="0 0 170 206"><title>beard-support</title><g id="60ca7c96-4ef9-4211-88ba-467861258c26" data-name="support"><path d="M2.5,91.5h34a0,0,0,0,1,0,0v57a0,0,0,0,1,0,0H20A17.5,17.5,0,0,1,2.5,131V91.5A0,0,0,0,1,2.5,91.5Z" style="fill:none;stroke:#998675;stroke-miterlimit:10;stroke-width:5px"/><path d="M216,141h16.5a0,0,0,0,1,0,0v57a0,0,0,0,1,0,0h-34a0,0,0,0,1,0,0V158.5A17.5,17.5,0,0,1,216,141Z" transform="translate(366 289.5) rotate(-180)" style="fill:none;stroke:#998675;stroke-miterlimit:10;stroke-width:5px"/><path d="M232.5,141v-6.5A82.5,82.5,0,0,0,150,52h0a82.5,82.5,0,0,0-82.5,82.5V141" transform="translate(-65 -49.5)" style="fill:none;stroke:#998675;stroke-miterlimit:10;stroke-width:5px"/><path d="M84.5,198v9a31,31,0,0,0,31,31H166" transform="translate(-65 -49.5)" style="fill:none;stroke:#998675;stroke-miterlimit:10;stroke-width:5px"/><ellipse cx="84.5" cy="188.5" rx="16" ry="10" style="fill:none;stroke:#998675;stroke-miterlimit:10;stroke-width:15px"/></g></svg>