<svg id="575285ce-6fb7-4c61-871d-80acda268868" data-name="Layer 1" xmlns="http://www.w3.org/2000/svg" viewBox="0 0 196.58 196.58"><title>logo-design-branding</title><g id="71320487-82f7-4bba-8f2a-7a16b4c59cd0" data-name="branding"><polyline points="98.29 61.52 40.3 3.54 3.54 40.3 61.52 98.29" style="fill:none;stroke:#998675;stroke-miterlimit:10;stroke-width:5px"/><polyline points="98.29 135.06 156.27 193.04 193.04 156.27 135.06 98.29" style="fill:none;stroke:#998675;stroke-miterlimit:10;stroke-width:5px"/><line x1="67.18" y1="30.41" x2="50.2" y2="47.38" style="fill:none;stroke:#998675;stroke-miterlimit:10;stroke-width:5px"/><line x1="166.17" y1="129.4" x2="149.2" y2="146.37" style="fill:none;stroke:#998675;stroke-miterlimit:10;stroke-width:5px"/><path d="M232,68h0a26,26,0,0,0-36.77,0L65.15,198.08l-4.6,42.08,41.37-5.31L232,104.75A26,26,0,0,0,232,68Z" transform="translate(-51.71 -51.71)" style="fill:none;stroke:#998675;stroke-miterlimit:10;stroke-width:5px"/><polyline points="50.2 183.14 43.84 154.15 13.44 146.37" style="fill:none;stroke:#998675;stroke-miterlimit:10;stroke-width:5px"/><line x1="169.59" y1="63.76" x2="132.82" y2="26.99" style="fill:none;stroke:#998675;stroke-miterlimit:10;stroke-width:5px"/></g></svg>