<svg id="Layer_1" data-name="Layer 1" xmlns="http://www.w3.org/2000/svg" viewBox="0 0 231.02 231.03"><defs><style>.cls-1,.cls-2,.cls-3,.cls-4,.cls-5,.cls-6{fill:none;stroke:#000;stroke-miterlimit:10;}.cls-1{stroke-width:5px;}.cls-2{stroke-width:20px;}.cls-3{stroke-width:19px;}.cls-4{stroke-width:21px;}.cls-5{stroke-width:26px;}.cls-6{stroke-width:28px;}</style></defs><title>palette</title><g id="a6e91b55-8f75-43a2-b4a2-d973d049d914"><path class="cls-1" d="M114.5,2.5c-61,.56-110.91,50-112,111a112.75,112.75,0,0,0,.8,15.69c2.12,17.61,24.06,24.75,36.26,11.87,6-6.33,13-11,20.42-11a41,41,0,0,1,41,41c0,7.44-4.69,14.41-11,20.42-12.88,12.2-5.74,34.14,11.87,36.26a113.62,113.62,0,0,0,15.65.76c60.93-1.07,110.4-51,111-111.93A113,113,0,0,0,116.58,2.5Z" transform="translate(0.02 0)"/><ellipse class="cls-2" cx="55.77" cy="87.6" rx="12.25" ry="9.85"/><ellipse class="cls-3" cx="101.52" cy="47.5" rx="11.5" ry="9.58"/><ellipse class="cls-4" cx="162.52" cy="69" rx="10.3" ry="11"/><ellipse class="cls-5" cx="177.02" cy="127" rx="16" ry="12.51"/><ellipse class="cls-6" cx="145.52" cy="180" rx="15.91" ry="14"/></g></svg>