<svg id="7d2d72b6-4875-4ab0-a293-b23418547ba7" data-name="Layer 1" xmlns="http://www.w3.org/2000/svg" viewBox="0 0 231 231"><title>palette</title><g id="a6e91b55-8f75-43a2-b4a2-d973d049d914" data-name="palette"><path d="M149,37C88,37.56,38.09,87,37,148a113.11,113.11,0,0,0,.8,15.69c2.12,17.61,24.06,24.75,36.26,11.87,6-6.33,13-11,20.42-11a41,41,0,0,1,41,41c0,7.44-4.69,14.41-11,20.42-12.88,12.2-5.74,34.14,11.87,36.26A113.11,113.11,0,0,0,152,263c60.93-1.07,110.4-51,111-111.93A113,113,0,0,0,149,37Z" transform="translate(-34.5 -34.5)" style="fill:none;stroke:#998675;stroke-miterlimit:10;stroke-width:5px"/><ellipse cx="55.75" cy="87.6" rx="12.25" ry="9.85" style="fill:none;stroke:#998675;stroke-miterlimit:10;stroke-width:20px"/><ellipse cx="101.5" cy="47.5" rx="11.5" ry="9.58" style="fill:none;stroke:#998675;stroke-miterlimit:10;stroke-width:19px"/><ellipse cx="162.5" cy="69" rx="10.3" ry="11" style="fill:none;stroke:#998675;stroke-miterlimit:10;stroke-width:21px"/><ellipse cx="177" cy="127" rx="16" ry="12.51" style="fill:none;stroke:#998675;stroke-miterlimit:10;stroke-width:26px"/><ellipse cx="145.5" cy="180" rx="15.91" ry="14" style="fill:none;stroke:#998675;stroke-miterlimit:10;stroke-width:28px"/></g></svg>